<svg width="22" height="22" viewBox="0 0 22 22" fill="none" xmlns="http://www.w3.org/2000/svg">
<path d="M10.9987 0.5C5.20138 0.5 0.5 5.32009 0.5 11.2661C0.5 16.0219 3.50825 20.0565 7.682 21.4813C8.207 21.5805 8.39863 21.2481 8.39863 20.9626C8.39863 20.7066 8.38944 20.0297 8.38419 19.1316C5.46388 19.7817 4.847 17.688 4.847 17.688C4.37056 16.4441 3.6815 16.113 3.6815 16.113C2.72731 15.4455 3.75237 15.4589 3.75237 15.4589C4.80631 15.5353 5.36019 16.5688 5.36019 16.5688C6.29731 18.2134 7.8185 17.7389 8.417 17.4628C8.5115 16.7671 8.78319 16.2926 9.08375 16.0232C6.75275 15.7511 4.301 14.8276 4.301 10.7031C4.301 9.52761 4.7105 8.56655 5.3825 7.81324C5.27356 7.54114 4.91394 6.44603 5.48488 4.96488C5.48488 4.96488 6.36688 4.67536 8.37238 6.06803C9.20975 5.82944 10.1075 5.71015 11.0013 5.70613C11.8925 5.71149 12.7916 5.82944 13.6302 6.06938C15.6344 4.6767 16.5151 4.96622 16.5151 4.96622C17.0874 6.44871 16.7277 7.54248 16.6201 7.81458C17.2934 8.56789 17.699 9.52896 17.699 10.7045C17.699 14.8396 15.2446 15.7498 12.9057 16.0165C13.2824 16.3489 13.6184 17.0057 13.6184 18.0097C13.6184 19.4493 13.6053 20.6101 13.6053 20.9626C13.6053 21.2508 13.7943 21.5859 14.3272 21.48C18.4944 20.0538 21.5 16.0205 21.5 11.2661C21.5 5.32009 16.7986 0.5 10.9987 0.5Z" fill="#8A94AE"/>
</svg>
