<svg width="20" height="20" viewBox="0 0 20 20" fill="none" xmlns="http://www.w3.org/2000/svg">
<g clip-path="url(#clip0)">
<path d="M19.4964 19.8853V19.8845H19.5013V12.7752C19.5013 9.29728 18.7525 6.61816 14.6866 6.61816C12.732 6.61816 11.4203 7.69078 10.8848 8.70766H10.8283V6.94286H6.97314V19.8845H10.9874V13.4763C10.9874 11.789 11.3072 10.1575 13.3967 10.1575C15.4555 10.1575 15.4862 12.083 15.4862 13.5845V19.8853H19.4964Z" fill="#8A94AE"/>
<path d="M0.436523 6.94336H4.4556V19.885H0.436523V6.94336Z" fill="#8A94AE"/>
<path d="M2.44447 0.5C1.15943 0.5 0.116699 1.54273 0.116699 2.82777C0.116699 4.11281 1.15943 5.17735 2.44447 5.17735C3.72951 5.17735 4.77224 4.11281 4.77224 2.82777C4.77143 1.54273 3.7287 0.5 2.44447 0.5V0.5Z" fill="#8A94AE"/>
</g>
<defs>
<clipPath id="clip0">
<rect width="19.3846" height="19.3846" fill="white" transform="translate(0.116699 0.5)"/>
</clipPath>
</defs>
</svg>
