<svg width="22" height="18" viewBox="0 0 22 18" fill="none" xmlns="http://www.w3.org/2000/svg">
<path d="M19.5738 2.82221L21.2019 1.26474V0.923828H15.562L11.5425 10.9284L6.96956 0.923828H1.05593V1.26474L2.95771 3.55418C3.14305 3.72336 3.23996 3.97076 3.21531 4.21985V13.217C3.27397 13.5409 3.16855 13.8741 2.94071 14.1096L0.79834 16.706V17.0426H6.87264V16.7017L4.73027 14.1096C4.49818 13.8733 4.38851 13.546 4.43527 13.217V5.43471L9.7674 17.0469H10.3872L14.972 5.43471V14.6852C14.972 14.9292 14.972 14.9793 14.8122 15.1391L13.1629 16.7349V17.0766H21.1645V16.7357L19.5747 15.1791C19.4353 15.0737 19.363 14.8969 19.3928 14.7251V3.27619C19.363 3.10361 19.4344 2.92678 19.5738 2.82221Z" fill="#8A94AE"/>
</svg>
