<svg width="30" height="30" viewBox="0 0 30 30" fill="none" xmlns="http://www.w3.org/2000/svg">
<path d="M17.6562 24.6688C16.7805 24.8343 15.8912 24.9173 15 24.9167C9.09958 24.9167 4.04236 21.3099 1.91084 16.1813C1.59673 15.4255 1.59674 14.5748 1.91064 13.8189C2.37023 12.7122 2.96946 11.6669 3.69496 10.7089M11.9938 11.9952C12.7909 11.1982 13.872 10.7503 14.9993 10.7503C16.1265 10.7503 17.2076 11.1982 18.0047 11.9952C18.8018 12.7923 19.2496 13.8734 19.2496 15.0007C19.2496 16.128 18.8018 17.2091 18.0047 18.0062M11.9938 11.9952L18.0047 18.0062M11.9938 11.9952L18.0033 18.0033M18.0047 18.0062L22.667 22.667M11.9966 11.9967L7.3358 7.33583M7.3358 7.33583L2.24996 2.25M7.3358 7.33583C9.61997 5.86189 12.2815 5.07966 15 5.08333C20.8995 5.08333 25.9561 8.68901 28.0881 13.8165C28.403 14.5736 28.4024 15.426 28.0873 16.183C26.9836 18.8348 25.0969 21.0997 22.6655 22.6656M7.3358 7.33583L22.6655 22.6656M22.6655 22.6656L27.75 27.75" stroke="#667088" stroke-width="3" stroke-linecap="round" stroke-linejoin="round"/>
</svg>
