<svg width="22" height="18" viewBox="0 0 22 18" fill="none" xmlns="http://www.w3.org/2000/svg">
<path d="M21.3071 2.29338C20.5262 2.63594 19.6941 2.863 18.8265 2.97325C19.719 2.44037 20.4002 1.603 20.7204 0.593687C19.8883 1.08981 18.9696 1.44025 17.9904 1.63581C17.2003 0.7945 16.0742 0.273438 14.8457 0.273438C12.4622 0.273438 10.5433 2.20806 10.5433 4.57975C10.5433 4.921 10.5722 5.24912 10.6431 5.5615C7.06388 5.38694 3.89682 3.6715 1.76925 1.05831C1.39782 1.70275 1.17994 2.44038 1.17994 3.23444C1.17994 4.72544 1.94775 6.04712 3.09225 6.81231C2.40057 6.79919 1.722 6.59838 1.14713 6.28206C1.14713 6.29519 1.14713 6.31225 1.14713 6.32931C1.14713 8.42144 2.63944 10.1592 4.59638 10.5595C4.24594 10.6553 3.864 10.7013 3.46763 10.7013C3.192 10.7013 2.91375 10.6855 2.65257 10.6278C3.21038 12.3327 4.79325 13.5861 6.67538 13.6268C5.21063 14.7726 3.35082 15.463 1.33744 15.463C0.984379 15.463 0.645754 15.4472 0.307129 15.4039C2.21419 16.6337 4.47432 17.3359 6.91163 17.3359C14.8339 17.3359 19.1651 10.7734 19.1651 5.08506C19.1651 4.89475 19.1586 4.711 19.1494 4.52856C20.0038 3.92219 20.7218 3.16488 21.3071 2.29338Z" fill="#8A94AE"/>
</svg>
