<svg width="34" height="32" viewBox="0 0 34 32" fill="none" xmlns="http://www.w3.org/2000/svg">
<path d="M4.75073 18.8259C4.13319 18.8259 3.66808 19.3915 3.83608 19.9857C5.60778 26.2524 11.3777 30.8579 18.2039 30.8579C26.4357 30.8579 33.1328 24.1608 33.1328 15.929C33.1328 7.69718 26.4357 1.0001 18.2039 1.0001C17.6706 1.0001 17.2383 1.43245 17.2383 1.96574C17.2383 2.49904 17.6706 2.93139 18.2039 2.93139C25.3708 2.93139 31.2015 8.7621 31.2015 15.929C31.2015 23.0959 25.3708 28.9266 18.2039 28.9266C12.3049 28.9266 7.31161 24.9764 5.72934 19.5824C5.60065 19.1437 5.20793 18.8259 4.75073 18.8259Z" fill="#667088" stroke="#667088" stroke-width="0.908609"/>
<path d="M1.04648 15.6557C1.21785 15.9584 1.5389 16.1455 1.88679 16.1455L8.09268 16.1455C8.44057 16.1455 8.76162 15.9584 8.93299 15.6557C9.10442 15.3529 9.09972 14.9814 8.92076 14.6831L5.81781 9.51151C5.64329 9.22066 5.32894 9.04266 4.9898 9.04266C4.65066 9.04266 4.33631 9.22066 4.16179 9.51151L1.05884 14.6831C0.879748 14.9814 0.875048 15.3529 1.04648 15.6557Z" fill="#667088"/>
<path d="M17.8765 9.93604L17.8765 17.6277L22.8177 17.6277" stroke="#A0A9C2" stroke-width="3" stroke-linecap="round" stroke-linejoin="round"/>
</svg>
