<svg xmlns="http://www.w3.org/2000/svg" width="180" height="28" viewBox="0 0 180 28"><defs><style>.a{fill:#380000;}.b{fill:#ff6d00;}</style></defs><title>AsiaOne_RGB-FullColour_MasterLogo_500px</title><path class="a" d="M0,14C0,4.79,6.6.19,12.79.19c4.76,0,7.83,2.61,8.49,4.09h.16V.7h6.85V27.3H21.44V23.72h-.16c-.66,1.48-3.73,4.09-8.49,4.09C6.6,27.81,0,23.21,0,14Zm21.59,0a7.23,7.23,0,0,0-7.42-7.67A7.26,7.26,0,0,0,6.75,14a7.26,7.26,0,0,0,7.42,7.67A7.23,7.23,0,0,0,21.59,14Z"/><path class="a" d="M31,20.34l5.47-1.48a4.46,4.46,0,0,0,4.4,3.53c1.74,0,3.43-.87,3.43-2.76,0-1.28-.82-2.2-2.92-3l-3.27-1.23c-4.4-1.58-6.24-4.4-6.24-7.62C31.82,3.05,36,.19,41,.19c4.81,0,8.34,2.71,9.21,6.8L44.86,8.37a3.54,3.54,0,0,0-3.53-2.81c-1.79,0-2.86,1-2.86,2.3,0,1.13.66,2.1,2.76,2.81l3,1.13c3.27,1.18,6.85,3.12,6.85,7.83,0,5.32-4.55,8.18-10.12,8.18C35.66,27.81,31.77,25.26,31,20.34Z"/><rect class="a" x="53.92" y="0.7" width="6.86" height="26.6"/><path class="a" d="M63.69,14C63.69,4.79,70.29.19,76.48.19,81.24.19,84.31,2.8,85,4.28h.15V.7H92V27.3H85.12V23.72H85c-.66,1.48-3.73,4.09-8.49,4.09C70.29,27.81,63.69,23.21,63.69,14Zm21.59,0a7.42,7.42,0,1,0-14.84,0,7.42,7.42,0,1,0,14.84,0Z"/><circle class="b" cx="108.71" cy="14" r="13.81"/><path class="b" d="M150.5,11.65V27.3h-6.85V12.77c0-3.89-2.1-6.44-5.68-6.44s-5.68,2.55-5.68,6.44V27.3h-6.86V.7h6.86V4.33A9.12,9.12,0,0,1,140.42.19C145.9.19,150.5,3.56,150.5,11.65Z"/><path class="b" d="M179.81,16.66h-19.9c1,3.63,4.15,5.53,8.14,5.53a10,10,0,0,0,6.85-2.41L178,23.11a13.56,13.56,0,0,1-10.74,4.7c-7.32,0-13.86-5-13.86-13.81S160.07.19,166.87.19,181.3,4.94,179.81,16.66Zm-20-5h13.92C173.32,7.86,170.14,6,166.92,6A7,7,0,0,0,159.81,11.65Z"/></svg>