<svg id="Layer_1" data-name="Layer 1" xmlns="http://www.w3.org/2000/svg" viewBox="0 0 750 115.92"><defs><style>.cls-1{fill:#633001;}.cls-2{fill:#fedc90;}.cls-3{fill:#d1884f;}</style></defs><title>pancakeswaplogo-freelogovectors.net</title><path d="M144.62,406.67a5.14,5.14,0,0,1-3.7-1.08,5,5,0,0,1-1-3.43V349.92a4,4,0,0,1,4.69-4.6h22.1q12.63,0,18.59,5.33t5.95,15.88q0,10.46-5.95,15.78t-18.59,5.24h-8.57v14.61a4.69,4.69,0,0,1-1.08,3.43,5.13,5.13,0,0,1-3.7,1.08Zm20.66-32.21a7.68,7.68,0,0,0,5.68-2c1.39-1.32,2.08-3.31,2.08-6s-.69-4.73-2.08-6a7.68,7.68,0,0,0-5.68-2h-7.13v16Z" transform="translate(0 -317.04)"/><path d="M212.57,408q-8.48,0-13.62-5.42t-5-15.42a25.23,25.23,0,0,1,3.42-13.27,23.26,23.26,0,0,1,9.84-8.75,32.9,32.9,0,0,1,14.7-3.16A43.19,43.19,0,0,1,234,363.55a35.29,35.29,0,0,1,9.75,4.24v36.09a2.92,2.92,0,0,1-.64,2.25,4.1,4.1,0,0,1-2.52.54h-9.2a3.51,3.51,0,0,1-1.54-.27,2.72,2.72,0,0,1-.9-1.08l-1.17-2.71a15.21,15.21,0,0,1-6.32,4.06A25.31,25.31,0,0,1,212.57,408Zm6.77-12.27a8.16,8.16,0,0,0,5.5-1.72,6.09,6.09,0,0,0,2-4.87V375.1a10,10,0,0,0-4.34-.82,9.64,9.64,0,0,0-7.66,3.34Q212,381,212,387,212,395.76,219.34,395.76Z" transform="translate(0 -317.04)"/><path d="M256.25,406.67a5.14,5.14,0,0,1-3.7-1.08,4.69,4.69,0,0,1-1.08-3.43v-36A3.13,3.13,0,0,1,252,364a3.66,3.66,0,0,1,2.53-.63h9.29a3,3,0,0,1,1.62.36,1.21,1.21,0,0,1,.73,1.08l.45,2.71a17.27,17.27,0,0,1,6.58-4,26.48,26.48,0,0,1,9.21-1.54q7.31,0,11.81,4.15t4.51,12.09v23.91a4.69,4.69,0,0,1-1.08,3.43c-.66.72-1.86,1.08-3.61,1.08H285.3a5.5,5.5,0,0,1-3.79-1.08,4.69,4.69,0,0,1-1.08-3.43V379.43a5.34,5.34,0,0,0-1.17-3.88,5,5,0,0,0-3.7-1.18,6.28,6.28,0,0,0-4.33,1.45,5.19,5.19,0,0,0-1.54,4v22.37a4.69,4.69,0,0,1-1.08,3.43c-.66.72-1.86,1.08-3.61,1.08Z" transform="translate(0 -317.04)"/><path d="M330.63,408q-12.63,0-19.48-5.87t-6.86-17.05A22.9,22.9,0,0,1,307.45,373a21.05,21.05,0,0,1,9.11-8.12A32.84,32.84,0,0,1,330.82,362a39.52,39.52,0,0,1,10.46,1.18A23,23,0,0,1,349,366.8a1.87,1.87,0,0,1,1,1.62,4,4,0,0,1-.72,1.89l-3.7,6.41Q344.89,378,344,378a4,4,0,0,1-1.72-.72,21.31,21.31,0,0,0-4.6-2.25,15.87,15.87,0,0,0-5.23-.73,9.75,9.75,0,0,0-7.31,2.89,11.18,11.18,0,0,0-2.71,7.94c0,3.43.94,6.08,2.8,7.94a10.59,10.59,0,0,0,7.67,2.71,15.68,15.68,0,0,0,5.23-.82,26,26,0,0,0,4.78-2.25,4.55,4.55,0,0,1,1.81-.72q.81,0,1.44,1.26l4.06,6.95a3.49,3.49,0,0,1,.45,1.44,2,2,0,0,1-1.08,1.53,28.31,28.31,0,0,1-8.3,3.61A39.24,39.24,0,0,1,330.63,408Z" transform="translate(0 -317.04)"/><path d="M373.54,408q-8.49,0-13.62-5.42t-5.06-15.42a25.24,25.24,0,0,1,3.43-13.27,23.23,23.23,0,0,1,9.83-8.75A33,33,0,0,1,382.83,362a43.19,43.19,0,0,1,12.09,1.54,35.09,35.09,0,0,1,9.74,4.24v36.09a3,3,0,0,1-.63,2.25,4.1,4.1,0,0,1-2.52.54H392.3a3.49,3.49,0,0,1-1.53-.27,2.72,2.72,0,0,1-.9-1.08l-1.17-2.71a15.21,15.21,0,0,1-6.32,4.06A25.35,25.35,0,0,1,373.54,408Zm6.76-12.27a8.19,8.19,0,0,0,5.51-1.72,6.08,6.08,0,0,0,2-4.87V375.1a10,10,0,0,0-4.33-.82,9.66,9.66,0,0,0-7.67,3.34Q373,381,373,387,373,395.76,380.3,395.76Z" transform="translate(0 -317.04)"/><path d="M461.34,403.24a2.44,2.44,0,0,1,.63,1.63,1.83,1.83,0,0,1-.54,1.35,2.21,2.21,0,0,1-1.45.45H446a7.52,7.52,0,0,1-1.9-.18,4.1,4.1,0,0,1-1.17-1l-12.27-16.69v13.35a4.69,4.69,0,0,1-1.08,3.43,5.14,5.14,0,0,1-3.7,1.08h-8.75a5.13,5.13,0,0,1-3.7-1.08,5,5,0,0,1-1-3.43V349.92a4,4,0,0,1,4.69-4.6h8.75a4.84,4.84,0,0,1,3.7,1.18,4.68,4.68,0,0,1,1.08,3.42v30.23l11.91-15.52a3,3,0,0,1,1.17-1,5.1,5.1,0,0,1,1.9-.27h14a1.69,1.69,0,0,1,1.36.54,1.55,1.55,0,0,1,.54,1.26,2.44,2.44,0,0,1-.63,1.63l-15.43,17.68Z" transform="translate(0 -317.04)"/><path d="M490.63,408a34.43,34.43,0,0,1-13.53-2.53,20.92,20.92,0,0,1-9.29-7.58,21.47,21.47,0,0,1-3.43-12.36q0-11.46,6.49-17.5T489.55,362q11.91,0,18,6t6.23,16.33c0,3-1.33,4.51-4,4.51H481.52a6.86,6.86,0,0,0,2.89,5.95q3,2.08,8.93,2.08a25,25,0,0,0,6.13-.63,26,26,0,0,0,5.06-2.08,4.94,4.94,0,0,1,1.44-.45q.81,0,1.35,1.08l3.07,5.78a3.45,3.45,0,0,1,.45,1.35,2,2,0,0,1-1.08,1.53,25.41,25.41,0,0,1-8.39,3.52A48.12,48.12,0,0,1,490.63,408Zm6.95-28.15a7,7,0,0,0-2-5.33q-2-1.89-5.95-1.89a8.41,8.41,0,0,0-6,2,6.73,6.73,0,0,0-2.08,5.24Z" transform="translate(0 -317.04)"/><path d="M544.74,408a64.79,64.79,0,0,1-14.34-1.54A32.07,32.07,0,0,1,519.48,402q-1.53-1-1.53-2.07a2.77,2.77,0,0,1,.53-1.54l4.42-7c.49-.73,1-1.09,1.45-1.09a3.88,3.88,0,0,1,1.54.63,32.64,32.64,0,0,0,7.57,3.07,31.49,31.49,0,0,0,8.39,1.17c2.83,0,4.9-.42,6.23-1.26a4.39,4.39,0,0,0,2.07-4.06,4.86,4.86,0,0,0-2.25-4.24,43.5,43.5,0,0,0-8.21-3.88q-9.12-3.42-14.26-7.67t-5-11.73q0-8.92,6.41-13.62T543.84,344a51.2,51.2,0,0,1,12.63,1.35,25,25,0,0,1,9,4c1,.78,1.53,1.51,1.53,2.17a2.61,2.61,0,0,1-.54,1.44l-4.42,7q-.81,1.08-1.44,1.08a3.82,3.82,0,0,1-1.54-.63A22.13,22.13,0,0,0,546.63,357a11.55,11.55,0,0,0-6,1.26,4.5,4.5,0,0,0-2.08,4.15,4.77,4.77,0,0,0,1.09,3.25,10.25,10.25,0,0,0,2.88,2.26c1.27.6,3.19,1.38,5.78,2.34l1.71.64a60.61,60.61,0,0,1,10.47,5.05,16.13,16.13,0,0,1,5.86,5.86,17,17,0,0,1,2,8.66,15.48,15.48,0,0,1-6,12.81Q556.38,408,544.74,408Z" transform="translate(0 -317.04)"/><path d="M587.55,406.67a4,4,0,0,1-2.08-.45,2.9,2.9,0,0,1-1.08-1.8l-11.64-39a2.86,2.86,0,0,1-.18-.81q0-1.26,1.8-1.26h11.91a2.68,2.68,0,0,1,1.72.45,1.87,1.87,0,0,1,.72,1.26l4.87,20.48,6.13-16.51a3.82,3.82,0,0,1,.91-1.44,2.83,2.83,0,0,1,1.8-.45h5.68a2.45,2.45,0,0,1,1.72.45,3.15,3.15,0,0,1,1,1.44l6,16.51,5-20.48a2.49,2.49,0,0,1,.72-1.26,2.29,2.29,0,0,1,1.62-.45h12c1.21,0,1.81.42,1.81,1.26a2.86,2.86,0,0,1-.18.81l-11.73,39a2.9,2.9,0,0,1-1.08,1.8,3.46,3.46,0,0,1-2,.45h-8.84a3.25,3.25,0,0,1-1.89-.45,4.2,4.2,0,0,1-1.09-1.8l-5.95-16.33-6,16.33a3.3,3.3,0,0,1-1.08,1.8,3.25,3.25,0,0,1-1.89.45Z" transform="translate(0 -317.04)"/><path d="M660.85,408q-8.48,0-13.62-5.42t-5.06-15.42a25.24,25.24,0,0,1,3.43-13.27,23.23,23.23,0,0,1,9.83-8.75A32.94,32.94,0,0,1,670.14,362a43.19,43.19,0,0,1,12.09,1.54,35.09,35.09,0,0,1,9.74,4.24v36.09a3,3,0,0,1-.63,2.25,4.12,4.12,0,0,1-2.53.54h-9.2a3.49,3.49,0,0,1-1.53-.27,2.72,2.72,0,0,1-.9-1.08L676,402.61a15.18,15.18,0,0,1-6.31,4.06A25.35,25.35,0,0,1,660.85,408Zm6.76-12.27a8.19,8.19,0,0,0,5.51-1.72,6.08,6.08,0,0,0,2-4.87V375.1a10,10,0,0,0-4.33-.82,9.66,9.66,0,0,0-7.67,3.34q-2.79,3.35-2.8,9.38Q660.3,395.76,667.61,395.76Z" transform="translate(0 -317.04)"/><path d="M704.44,424.9a5.08,5.08,0,0,1-3.7-1.09,5,5,0,0,1-1-3.42v-51.7a35.62,35.62,0,0,1,10.19-4.78,43.27,43.27,0,0,1,12.81-1.9Q750,362,750,385.11q0,10.47-5.77,16.69T727.89,408a22.59,22.59,0,0,1-5.77-.73,14.22,14.22,0,0,1-4.51-2v15.07a4.68,4.68,0,0,1-1.08,3.42,5.11,5.11,0,0,1-3.7,1.09Zm19.58-29a6.44,6.44,0,0,0,5.77-2.89,14.15,14.15,0,0,0,2-7.94q0-5.86-2.34-8.21c-1.5-1.62-3.85-2.44-7-2.44a11.94,11.94,0,0,0-4.87.82v14.34a6.12,6.12,0,0,0,1.72,4.69A6.67,6.67,0,0,0,724,395.85Z" transform="translate(0 -317.04)"/><path class="cls-1" d="M20.58,335.16a15.31,15.31,0,1,1,30.36-2.81v18.87q3.16-.23,6.44-.22t6.19.2V332.35a15.31,15.31,0,1,1,30.36,2.81l-4.15,22.18c14.22,6.21,25,17,25,30.54v8.2c0,11.14-7.37,20.47-17.67,26.76S72.65,433,57.38,433s-29.32-3.77-39.71-10.12S0,407.22,0,396.08v-8.2c0-13.48,10.64-24.22,24.74-30.44Zm63.89,25.1,4.85-26a10.63,10.63,0,1,0-21.07-1.95v24c-1.54-.2-3.1-.36-4.68-.47-2-.15-4.1-.22-6.19-.22s-4.33.08-6.44.24c-1.59.12-3.15.28-4.69.48v-24a10.63,10.63,0,1,0-21.07,1.95l4.87,26C14.84,366,4.68,376.21,4.68,387.88v8.2c0,17.78,23.6,32.2,52.7,32.2s52.69-14.42,52.69-32.2v-8.2C110.07,376.15,99.81,365.89,84.47,360.26Z" transform="translate(0 -317.04)"/><path class="cls-2" d="M110.07,396.08c0,17.78-23.59,32.2-52.69,32.2s-52.7-14.42-52.7-32.2v-8.2H110.07Z" transform="translate(0 -317.04)"/><path class="cls-3" d="M25.18,334.3a10.63,10.63,0,1,1,21.07-1.95v24a86.8,86.8,0,0,1,22,0v-24a10.63,10.63,0,1,1,21.07,1.95l-4.85,26c15.34,5.63,25.6,15.89,25.6,27.62,0,17.78-23.59,32.2-52.69,32.2s-52.7-14.42-52.7-32.2c0-11.67,10.16-21.89,25.37-27.54Z" transform="translate(0 -317.04)"/><path class="cls-1" d="M42.74,385.54c0,4.85-2.62,8.78-5.85,8.78S31,390.39,31,385.54s2.62-8.78,5.86-8.78S42.74,380.69,42.74,385.54Z" transform="translate(0 -317.04)"/><path class="cls-1" d="M83.14,385.54c0,4.85-2.62,8.78-5.86,8.78s-5.85-3.93-5.85-8.78,2.62-8.78,5.85-8.78S83.14,380.69,83.14,385.54Z" transform="translate(0 -317.04)"/></svg>